<svg width="24" height="26" viewBox="0 0 24 26" fill="none" xmlns="http://www.w3.org/2000/svg">
<g clip-path="url(#clip0_269_287)">
<path d="M23.954 20.1663C23.8216 19.2956 23.6823 18.4263 23.5454 17.5563C22.9794 13.9655 22.4127 10.3749 21.8453 6.78457C21.7619 6.22427 21.5011 5.70542 21.1013 5.30412C20.7015 4.90281 20.1836 4.64016 19.6236 4.55465C18.935 4.44478 18.2374 4.52455 17.5442 4.51251C17.3772 4.51251 17.3132 4.47714 17.2741 4.29426C16.7563 1.88598 14.6754 0.106111 12.2776 0.00451155C9.58037 -0.106119 7.27745 1.67224 6.7085 4.31533C6.67538 4.47111 6.6227 4.5095 6.47444 4.50799C5.91151 4.50047 5.34556 4.49896 4.78564 4.50799C4.1514 4.50933 3.53828 4.73606 3.05577 5.1477C2.57327 5.55935 2.25279 6.1291 2.15158 6.75522C1.83474 8.67808 1.54274 10.6047 1.23794 12.5298C0.872185 14.8428 0.504672 17.1557 0.135403 19.4687C0.0217622 20.1754 -0.0708076 20.879 0.0797098 21.5917C0.538035 23.7584 2.33747 25.2252 4.56362 25.2282C7.04064 25.2327 9.51765 25.2327 11.9947 25.2282C14.4341 25.2282 16.8734 25.2282 19.3128 25.2282C19.6035 25.2287 19.8938 25.2104 20.1821 25.1733C22.5249 24.867 24.3115 22.5001 23.954 20.1663ZM11.8186 1.80319C13.8965 1.72266 15.2052 3.27827 15.4438 4.49219H8.5561C8.69156 3.17366 10.287 1.86415 11.8186 1.80545V1.80319ZM19.4656 23.4213C16.9821 23.4325 14.4933 23.4213 12.0075 23.4213C9.52167 23.4213 7.05393 23.4213 4.57717 23.4213C3.15177 23.4213 2.05525 22.4903 1.82571 21.104C1.74067 20.593 1.86259 20.0956 1.94086 19.5989C2.34224 17.0446 2.74613 14.4908 3.15252 11.9375C3.40314 10.3571 3.64772 8.77215 3.90135 7.19022C4.00069 6.56858 4.32355 6.30442 4.95873 6.30442H19.0321C19.668 6.30442 19.9894 6.56783 20.0857 7.19248C20.5278 9.97705 20.9665 12.7616 21.402 15.5462C21.6499 17.1191 21.8987 18.692 22.1486 20.2649C22.4165 21.9477 21.177 23.416 19.4656 23.4235V23.4213Z" fill="black"/>
<path d="M17.3998 9.04459C17.4247 11.7012 15.3137 14.0726 12.6585 14.3669C12.4328 14.391 12.2108 14.4075 11.9865 14.4278C9.04462 14.412 6.59645 11.9977 6.58667 9.08447C6.58667 8.51551 6.95694 8.10611 7.48149 8.10611C7.99476 8.10611 8.37256 8.49595 8.3846 9.04835C8.43728 10.9298 9.82129 12.4184 11.6854 12.5998C13.4435 12.7706 15.0849 11.5627 15.5026 9.7889C15.5602 9.53265 15.591 9.27109 15.5944 9.00847C15.6087 8.48166 16.003 8.09859 16.5095 8.10536C17.016 8.11214 17.3923 8.51703 17.3998 9.04459Z" fill="black"/>
</g>
<defs>
<clipPath id="clip0_269_287">
<rect width="24" height="25.2297" fill="white"/>
</clipPath>
</defs>
</svg>
