<svg width="20" height="20" viewBox="0 0 20 20" fill="none" xmlns="http://www.w3.org/2000/svg">
<path d="M10 0C8.02219 0 6.08879 0.58649 4.4443 1.6853C2.79981 2.78412 1.51809 4.3459 0.761209 6.17317C0.00433284 8.00043 -0.193701 10.0111 0.192152 11.9509C0.578004 13.8907 1.53041 15.6725 2.92894 17.0711C4.32746 18.4696 6.10929 19.422 8.0491 19.8079C9.98891 20.1937 11.9996 19.9957 13.8268 19.2388C15.6541 18.4819 17.2159 17.2002 18.3147 15.5557C19.4135 13.9112 20 11.9778 20 10C19.997 7.34877 18.9424 4.80699 17.0677 2.93228C15.193 1.05758 12.6512 0.0030331 10 0ZM10 18C8.41775 18 6.87104 17.5308 5.55544 16.6518C4.23985 15.7727 3.21447 14.5233 2.60897 13.0615C2.00347 11.5997 1.84504 9.99113 2.15372 8.43928C2.4624 6.88743 3.22433 5.46197 4.34315 4.34315C5.46197 3.22433 6.88743 2.4624 8.43928 2.15372C9.99113 1.84504 11.5997 2.00346 13.0615 2.60896C14.5233 3.21447 15.7727 4.23984 16.6518 5.55544C17.5308 6.87103 18 8.41775 18 10C17.9976 12.121 17.1539 14.1544 15.6542 15.6542C14.1544 17.1539 12.121 17.9976 10 18ZM10 4C9.86867 3.99997 9.73862 4.02581 9.61728 4.07605C9.49594 4.12629 9.38569 4.19995 9.29282 4.29282C9.19996 4.38568 9.1263 4.49593 9.07606 4.61728C9.02581 4.73862 8.99997 4.86867 9 5V9.749L7.61816 12.3267C7.49294 12.5605 7.46575 12.8346 7.54257 13.0885C7.6194 13.3424 7.79396 13.5554 8.02783 13.6807C8.26171 13.8059 8.53576 13.8331 8.78969 13.7563C9.04361 13.6794 9.25662 13.5049 9.38184 13.271L10.8818 10.4722C10.9593 10.3268 10.9999 10.1647 11 10V5C11 4.86867 10.9742 4.73862 10.924 4.61728C10.8737 4.49593 10.8001 4.38568 10.7072 4.29282C10.6143 4.19995 10.5041 4.12629 10.3827 4.07605C10.2614 4.02581 10.1313 3.99997 10 4Z" fill="#AAAAAA"/>
</svg>
