<svg width="20" height="20" viewBox="0 0 20 20" fill="none" xmlns="http://www.w3.org/2000/svg">
<path d="M19.7937 2.43791C19.4839 1.4376 18.8591 0.721633 17.8941 0.295102C17.5995 0.16308 17.2948 0.117381 16.9799 0.0869141H3.26128C3.01241 0.127536 2.76353 0.137692 2.51973 0.229091C2.03214 0.416968 1.61566 0.701322 1.25504 1.08215C0.701425 1.6661 0.391602 2.35159 0.391602 3.16403C0.391602 7.60199 0.391602 12.0399 0.391602 16.4779C0.391602 16.8486 0.45763 17.204 0.599844 17.5493C0.78777 18.0063 1.06712 18.3871 1.42265 18.7172C1.99659 19.2504 2.66703 19.5601 3.45936 19.5601C7.90864 19.5601 12.363 19.5601 16.8123 19.5601C17.1018 19.5601 17.3913 19.5246 17.6706 19.4332C18.3157 19.2148 18.8337 18.8289 19.2502 18.2957C19.6108 17.8387 19.8242 17.3208 19.8699 16.7318V2.94061C19.8292 2.77812 19.8445 2.60548 19.7937 2.43791ZM3.34255 1.74226C3.49492 1.7118 3.64729 1.71687 3.79458 1.71687C5.91764 1.71687 8.03561 1.71687 10.1587 1.71687C12.2868 1.71687 14.4149 1.71687 16.5431 1.71687C17.4065 1.71687 18.0465 2.21957 18.2141 3.02186C18.2395 3.15895 18.2446 3.30113 18.2446 3.43823C18.2446 7.69339 18.2446 11.9485 18.2446 16.2037C18.2446 17.0822 17.7468 17.727 16.9392 17.8946C16.8021 17.92 16.6599 17.9251 16.5227 17.9251C12.2665 17.9251 8.01022 17.92 3.75903 17.9301C2.84987 17.9301 2.19975 17.3259 2.0677 16.6201C2.0423 16.483 2.03722 16.3408 2.03722 16.2037C2.03722 11.9485 2.0423 7.69339 2.03214 3.44331C2.02706 2.53439 2.61624 1.88444 3.34255 1.74226Z" fill="black"/>
<path d="M12.5712 6.57627C12.5712 8.36871 11.1135 9.82095 9.32054 9.82095C7.53271 9.82095 6.07501 8.35348 6.08009 6.57119C6.09025 4.7889 7.54287 3.34174 9.32054 3.33666C11.1084 3.32651 12.5712 4.7889 12.5712 6.57627Z" fill="black"/>
<path d="M10.2702 16.3103C9.19347 16.3001 8.11671 16.3052 7.03994 16.3052C5.97842 16.3052 4.91181 16.3001 3.85028 16.3103C3.69791 16.3103 3.64712 16.2849 3.6522 16.1173C3.76394 13.4667 5.59748 11.2935 8.18782 10.7451C8.55351 10.6689 8.92428 10.6435 9.30013 10.6283C9.42711 10.6232 9.47282 10.6587 9.49314 10.7908C9.55917 11.2325 9.64551 11.6743 9.70646 12.1211C9.7217 12.2379 9.76741 12.2735 9.87407 12.2582C9.98073 12.243 10.0112 12.2938 10.0214 12.3953C10.1585 13.6394 10.2956 14.8834 10.4378 16.1275C10.4531 16.2646 10.4277 16.3103 10.2702 16.3103Z" fill="black"/>
<path d="M16.0556 12.9286C15.9388 14.2183 15.8169 15.5131 15.695 16.8029C15.6696 17.0568 15.5985 17.1177 15.3446 17.1177H12.2311C11.9771 17.1177 11.906 17.0568 11.8806 16.8029C11.7587 15.5131 11.6368 14.2234 11.52 12.9286C11.4997 12.6899 11.6064 12.5782 11.8502 12.5782C12.5003 12.5782 13.1555 12.5782 13.8056 12.5782C14.4456 12.5782 15.0855 12.5782 15.7255 12.5782C15.9693 12.5782 16.0759 12.6848 16.0556 12.9286Z" fill="black"/>
<path d="M16.6234 11.4255C16.6335 11.7708 16.4354 12.0044 16.1154 12.0044C15.3384 12.0095 14.5613 12.0044 13.7791 12.0044C13.0274 12.0044 12.2757 11.9993 11.5189 12.0044C11.2852 12.0044 11.0922 11.9435 11.0008 11.7099C10.9043 11.456 10.9196 11.2123 11.0973 10.999C11.1837 10.8924 11.3056 10.867 11.4376 10.867C11.8541 10.867 12.2706 10.8619 12.6922 10.867C12.7937 10.867 12.8293 10.8467 12.8344 10.735C12.8445 10.4405 12.9918 10.3034 13.2915 10.2983C13.6267 10.2983 13.9619 10.2932 14.2971 10.2983C14.5663 10.3034 14.7289 10.4506 14.7289 10.7197C14.7289 10.8619 14.7847 10.867 14.8965 10.867C15.3028 10.8619 15.704 10.8619 16.1104 10.867C16.4304 10.8771 16.6183 11.0803 16.6234 11.4255Z" fill="black"/>
</svg>
