<svg width="20" height="19" viewBox="0 0 20 19" fill="none" xmlns="http://www.w3.org/2000/svg">
<path fill-rule="evenodd" clip-rule="evenodd" d="M0.0844504 0.526475C0.233412 0.205417 0.55517 0 0.909102 0H19.0909C19.4448 0 19.7666 0.205417 19.9156 0.526475C20.0645 0.847533 20.0136 1.22586 19.7851 1.49611L12.7273 9.84194V17.2727C12.7273 17.5878 12.5641 17.8804 12.2961 18.046C12.0281 18.2117 11.6934 18.2267 11.4116 18.0858L7.77526 16.2676C7.46728 16.1136 7.27273 15.7989 7.27273 15.4545V9.84194L0.214948 1.49611C-0.0135947 1.22586 -0.0645115 0.847533 0.0844504 0.526475ZM2.86847 1.81818L8.87597 8.92206C9.01476 9.08617 9.09091 9.29415 9.09091 9.50908V14.8927L10.9091 15.8018V9.50908C10.9091 9.29415 10.9852 9.08617 11.124 8.92206L17.1315 1.81818H2.86847Z" fill="white"/>
</svg>
