<svg width="16" height="22" viewBox="0 0 16 22" fill="none" xmlns="http://www.w3.org/2000/svg">
<path d="M11.7343 1.57571L11.7343 1.5757C11.1347 1.19037 10.4794 0.897987 9.79994 0.713588L11.7343 1.57571ZM11.7343 1.57571L11.7369 1.57734M11.7343 1.57571L11.7369 1.57734M11.7369 1.57734C12.3376 1.95829 12.8834 2.42769 13.3579 2.96548C13.8312 3.50195 14.2284 4.10661 14.5382 4.75371C14.844 5.3924 15.0451 6.07678 15.1592 6.79446C15.5327 9.1659 14.622 11.8947 13.096 14.4436C11.6479 16.8624 9.68786 19.0478 7.91201 20.503C7.88353 20.4858 7.85496 20.4682 7.82621 20.4502L7.82518 20.4495C7.43585 20.2069 7.06241 19.9433 6.70476 19.6586C6.32764 19.355 5.96759 19.0364 5.6242 18.6974L5.62163 18.6949C5.26107 18.344 4.92097 17.9765 4.59598 17.5919L4.5952 17.591C4.25929 17.1954 3.94463 16.7891 3.64578 16.3664L3.64508 16.3654C3.34228 15.9394 3.05917 15.4951 2.7903 15.0423C2.52309 14.5868 2.27733 14.1262 2.04754 13.6493L2.04756 13.6493L2.04558 13.6453C1.81852 13.1847 1.61623 12.705 1.42807 12.2146C1.24672 11.7332 1.08741 11.2484 0.955012 10.7599L0.955019 10.7599L0.954271 10.7572C0.822971 10.2833 0.722394 9.80141 0.642472 9.31022C0.568629 8.83925 0.521512 8.37059 0.505813 7.8984L0.505787 7.89762C0.49013 7.44767 0.505864 6.99429 0.557622 6.54803L0.557637 6.54803L0.558053 6.54419C0.604405 6.11562 0.686536 5.69474 0.808795 5.28617L0.8088 5.28617L0.809463 5.28392C0.927766 4.88169 1.08007 4.49164 1.27442 4.13192L1.27448 4.13196L1.27827 4.12466C1.47177 3.75197 1.6989 3.40362 1.96367 3.08808L1.96371 3.08811L1.96803 3.08281C2.23798 2.75203 2.55056 2.45309 2.898 2.1816L2.89834 2.18133C3.27053 1.88997 3.67478 1.63837 4.10131 1.42713L4.10155 1.42701M11.7369 1.57734L4.10155 1.42701M4.10155 1.42701C4.57979 1.18985 5.08888 1.00173 5.6106 0.848479C6.24209 0.665222 6.8628 0.5 7.44002 0.5H7.4406H7.44118H7.44176H7.44234H7.44291H7.44349H7.44407H7.44465H7.44523H7.44581H7.44639H7.44697H7.44754H7.44812H7.4487H7.44928H7.44986H7.45044H7.45102H7.45159H7.45217H7.45275H7.45333H7.45391H7.45449H7.45507H7.45565H7.45622H7.4568H7.45738H7.45796H7.45854H7.45912H7.4597H7.46027H7.46085H7.46143H7.46201H7.46259H7.46317H7.46375H7.46432H7.4649H7.46548H7.46606H7.46664H7.46722H7.4678H7.46838H7.46895H7.46953H7.47011H7.47069H7.47127H7.47185H7.47243H7.473H7.47358H7.47416H7.47474H7.47532H7.4759H7.47648H7.47705H7.47763H7.47821H7.47879H7.47937H7.47995H7.48053H7.4811H7.48168H7.48226H7.48284H7.48342H7.484H7.48458H7.48516H7.48573H7.48631H7.48689H7.48747H7.48805H7.48863H7.48921H7.48978H7.49036H7.49094H7.49152H7.4921H7.49268H7.49326H7.49383H7.49441H7.49499H7.49557H7.49615H7.49673H7.49731H7.49789H7.49846H7.49904H7.49962H7.5002H7.50078H7.50136H7.50194H7.50251H7.50309H7.50367H7.50425H7.50483H7.50541H7.50599H7.50656H7.50714H7.50772H7.5083H7.50888H7.50946H7.51004H7.51062H7.51119H7.51177H7.51235H7.51293H7.51351H7.51409H7.51467H7.51524H7.51582H7.5164H7.51698H7.51756H7.51814H7.51872H7.51929H7.51987H7.52045H7.52103H7.52161H7.52219H7.52277H7.52334H7.52392H7.5245H7.52508H7.52566H7.52624H7.52682H7.5274H7.52797H7.52855H7.52913H7.52971H7.53029H7.53087H7.53145H7.53202H7.5326H7.53318H7.53376H7.53434H7.53492H7.5355H7.53608H7.53665H7.53723H7.53781H7.53839H7.53897H7.53955H7.54013H7.5407H7.54128H7.54186H7.54244H7.54302H7.5436H7.54418H7.54475H7.54533H7.54591H7.54649H7.54707H7.54765H7.54823H7.5488H7.54938H7.54996H7.55054H7.55112H7.5517H7.55228H7.55286H7.55343H7.55401H7.55459H7.55517H7.55575H7.55633H7.55691H7.55748H7.55806H7.55864H7.55922H7.5598H7.56038H7.56096H7.56153H7.56211H7.56269H7.56327H7.56385H7.56443H7.56501H7.56559H7.56616H7.56674H7.56732H7.5679H7.56848H7.56906H7.56964H7.57021H7.57079H7.57137H7.57195H7.57253H7.57311H7.57369H7.57426H7.57484H7.57542H7.576H7.57658H7.57716H7.57774H7.57832H7.57889H7.57947H7.58005H7.58063H7.58121H7.58179H7.58237H7.58294H7.58352H7.5841H7.58468H7.58526H7.58584H7.58642H7.58699H7.58757H7.58815H7.58873H7.58931H7.58989H7.59047H7.59104H7.59162H7.5922H7.59278H7.59336H7.59394H7.59452H7.5951H7.59567H7.59625H7.59683H7.59741H7.59799H7.59857H7.59915H7.59972H7.6003H7.60088H7.60146H7.60204H7.60262H7.6032H7.60378H7.60435H7.60493H7.60551H7.60609H7.60667H7.60725H7.60783H7.6084H7.60898H7.60956H7.61014H7.61072H7.6113H7.61188H7.61245H7.61303H7.61361H7.61419H7.61477H7.61535H7.61593H7.6165H7.61708H7.61766H7.61824H7.61882H7.6194H7.61998H7.62056H7.62113H7.62171H7.62229H7.62287H7.62345H7.62403H7.62461H7.62518H7.62576H7.62634H7.62692H7.6275H7.62808H7.62866H7.62923H7.62981H7.63039H7.63097H7.63155H7.63213H7.63271H7.63329H7.63386H7.63444H7.63502H7.6356H7.63618H7.63676H7.63734H7.63791H7.63849H7.63907H7.63965H7.64023H7.64081H7.64139H7.64196H7.64254H7.64312H7.6437H7.64428H7.64486H7.64544H7.64602H7.64659H7.64717H7.64775H7.64833H7.64891H7.64949H7.65007H7.65064H7.65122H7.6518H7.65238H7.65296H7.65354H7.65412H7.65469H7.65527H7.65585H7.65643H7.65701H7.65759H7.65817H7.65875H7.65932H7.6599H7.66048H7.66106H7.66164H7.66222H7.6628H7.66337H7.66395H7.66453H7.66511H7.66569H7.66627H7.66685H7.66742H7.668H7.66858H7.66916H7.66974H7.67032H7.6709H7.67147H7.67205H7.67263H7.67321H7.67379H7.67437H7.67495H7.67553H7.6761H7.67668H7.67726H7.67784H7.67842H7.679H7.67958H7.68015H7.68073H7.68131H7.68189H7.68247H7.68305H7.68363H7.68421H7.68478H7.68536H7.68594H7.68652H7.6871H7.68768H7.68826H7.68883H7.68941H7.68999H7.69057H7.69115H7.69173H7.69231H7.69288H7.69346H7.69404H7.69462H7.6952H7.69578H7.69636H7.69693H7.69751H7.69809H7.69867H7.69925H7.69983H7.70041H7.70099H7.70156H7.70214H7.70272H7.7033H7.70388H7.70446H7.70504H7.70561H7.70619H7.70677H7.70735H7.70793H7.70851H7.70909H7.70966H7.71024H7.71082H7.7114H7.71198H7.71256H7.71314H7.71372H7.71429H7.71487H7.71545H7.71603H7.71661H7.71719H7.71777H7.71834H7.71892H7.7195H7.72008H7.72066H7.72124H7.72182H7.72239H7.72297H7.72355H7.72413H7.72471H7.72529H7.72587H7.72645H7.72702H7.7276H7.72818H7.72876H7.72934H7.72992H7.7305H7.73107H7.73165H7.73223H7.73281H7.73339H7.73397H7.73455H7.73512H7.7357H7.73628H7.73728H7.73828H7.73927H7.74027H7.74127H7.74226H7.74326H7.74426H7.74526H7.74625H7.74725H7.74825H7.74925H7.75025H7.75124H7.75224H7.75324H7.75424H7.75524H7.75624H7.75724H7.75823H7.75923H7.76023H7.76123H7.76223H7.76323H7.76423H7.76523H7.76623H7.76723H7.76823H7.76923H7.77023H7.77123H7.77223H7.77324H7.77424H7.77524H7.77624H7.77724H7.77824H7.77924H7.78024H7.78125H7.78225H7.78325H7.78425H7.78525H7.78626H7.78726H7.78826H7.78926H7.79027H7.79127H7.79227H7.79327H7.79428H7.79528H7.79628H7.79729H7.79829H7.79929H7.8003H7.8013H7.8023H7.80331H7.80431H7.80532H7.80632H7.80732H7.80833H7.80933H7.81034H7.81134H7.81235H7.81335H7.81435H7.81536H7.81636H7.81737H7.81837H7.81938H7.82039H7.82139H7.8224H7.8234H7.82441H7.82541H7.82642H7.82743H7.82843H7.82944H7.83044H7.83145H7.83246H7.83346H7.83447H7.83547H7.83648H7.83749H7.83849H7.8395H7.84051H7.84152H7.84252H7.84353H7.84454H7.84554H7.84655H7.84756H7.84857H7.84957H7.85058H7.85159H7.8526H7.8536H7.85461H7.85562H7.85663H7.85764H7.85865H7.85965H7.86066H7.86167H7.86268H7.86369H7.8647H7.8657H7.86671H7.86772H7.86873H7.86974H7.87075H7.87176H7.87277H7.87378H7.87478H7.87579H7.8768H7.87781H7.87882H7.87983H7.88084H7.88185H7.88286H7.88387H7.88488H7.88589H7.8869H7.88791H7.88892H7.88993H7.89094H7.89195H7.89296H7.89397H7.89498H7.89599H7.897H7.89801H7.89902H7.90003H7.90104H7.90205H7.90306H7.90407H7.90508H7.9061H7.90711H7.90812H7.90913H7.91014H7.91115H7.91216H7.91317H7.91418H7.91519H7.9162H7.91722H7.91823H7.91924H7.92025H7.92126H7.92227H7.92328H7.92429H7.92531H7.92632H7.92733H7.92834H7.92935H7.93036H7.93138H7.93239H7.9334H7.93441H7.93542H7.93643H7.93745H7.93846H7.93947H7.94048H7.94149H7.94251H7.94352H7.94453H7.94554H7.94655H7.94757H7.94858H7.94959H7.9506H7.95161H7.95263H7.95364H7.95465H7.95566H7.95668H7.95769H7.9587H7.95971H7.96072H7.96174H7.96275H7.96376H7.96477H7.96579H7.9668H7.96781H7.96882H7.96984H7.97085H7.97186H7.97287H7.97389H7.9749H7.97591H7.97692H7.97794H7.97895H7.97996H7.98097H7.98199H7.983H7.98401H7.98502H7.98604H7.98705H7.98806H7.98907H7.99009H7.9911H7.99211H7.99313H7.99414H7.99515H7.99616H7.99718H7.99819H7.9992H8.00021H8.00123H8.00224H8.00325H8.00426H8.00528H8.00629H8.0073H8.00831H8.00933H8.01034H8.01135H8.01236H8.01338H8.01439H8.0154H8.01641H8.01743H8.01844H8.01945H8.02046H8.02148H8.02249H8.0235H8.02451H8.02553H8.02654H8.02755H8.02856H8.02958H8.03059H8.0316H8.03261H8.03362H8.03464H8.03565H8.03666H8.03767H8.03869H8.0397H8.04071H8.04172H8.04273H8.04375H8.04476H8.04577H8.04678H8.04779H8.04881H8.04982H8.05083H8.05184H8.05285H8.05386H8.05488H8.05589H8.0569H8.05791H8.05892H8.05993H8.06095H8.06196H8.06297H8.06398H8.06499H8.066H8.06701H8.06803H8.06904H8.07005H8.07106H8.07207H8.07308H8.07409H8.0751H8.07612H8.07713H8.07814H8.07915H8.08016H8.08117H8.08218H8.08319H8.0842H8.08521H8.08622H8.08723H8.08824H8.08926H8.09027H8.09128H8.09229H8.0933H8.09431H8.09532H8.09633H8.09734H8.09835H8.09936H8.10037H8.10138H8.10239H8.1034H8.10441H8.10542H8.10643H8.10744H8.10844H8.10945H8.11046H8.11147H8.11248H8.11349H8.1145H8.11551H8.11652H8.11753H8.11854H8.11954H8.12055H8.12156H8.12257H8.12358H8.12459H8.1256H8.12661H8.12761H8.12862H8.12963H8.13064H8.13165H8.13265H8.13366H8.13467H8.13568H8.13669H8.13769H8.1387H8.13971H8.14072H8.14172H8.14273H8.14374H8.14475H8.14575H8.14676H8.14777H8.14877H8.14978H8.15079H8.15179H8.1528H8.15381H8.15481H8.15582H8.15683H8.15783H8.15884H8.15984H8.16085H8.16186H8.16286H8.16387H8.16487H8.16588H8.16688H8.16789H8.1689H8.1699H8.17091H8.17191H8.17292H8.17392H8.17493H8.17593H8.17693H8.17794H8.17894H8.17995H8.18095H8.18196H8.18296H8.18396H8.18497H8.18597H8.18698H8.18798H8.18898H8.18999H8.19099H8.19199H8.193H8.194H8.195H8.196H8.19701H8.19801H8.19901H8.20002H8.20102H8.20202H8.20302H8.20402H8.20503H8.20603H8.20703H8.20803H8.20903H8.21003H8.21104H8.21204H8.21304H8.21404H8.21504H8.21604H8.21704H8.21804H8.21904H8.22004H8.22104H8.22204H8.22304H8.22404H8.22504H8.22604H8.22704H8.22804H8.22904H8.23004H8.23104H8.23204H8.23304H8.23404H8.23503H8.23603H8.23703H8.23803H8.23903H8.24003H8.24102H8.24202H8.24302H8.24402H8.24501H8.24601H8.24701H8.24801H8.249H8.25H8.251H8.25199C8.77377 0.5 9.28926 0.575376 9.79985 0.713563L4.10155 1.42701ZM7.93909 12.8043L7.95077 12.8041L7.96243 12.8035C9.55634 12.712 10.7589 12.0521 11.5451 11.0874C12.3241 10.1315 12.6697 8.90742 12.6208 7.71506C12.5719 6.52292 12.1273 5.33207 11.286 4.44181C10.4368 3.54314 9.20626 2.97618 7.64883 3.00934L7.63879 3.00955L7.62876 3.01017C6.04523 3.10762 4.84712 3.76636 4.06126 4.72601C3.2823 5.67722 2.93205 6.89436 2.97652 8.08223C3.02099 9.26995 3.46109 10.4571 4.30043 11.3486C5.1473 12.2481 6.37723 12.8208 7.93909 12.8043Z" stroke="white"/>
</svg>
