<svg width="20" height="21" viewBox="0 0 20 21" fill="none" xmlns="http://www.w3.org/2000/svg">
<path d="M13.4123 15.3206C13.4123 16.3879 12.5051 17.4019 11.4111 17.6153C11.2244 17.642 11.0643 17.6687 10.8775 17.6687C10.1838 17.6687 9.51669 17.6687 8.82294 17.6687C8.55612 17.6687 8.52943 17.6687 8.52943 17.9622C8.52943 18.1223 8.52943 18.2824 8.52943 18.4692C8.50275 19.1629 8.18256 19.6699 7.56886 19.9634C7.40877 20.0435 7.22199 20.0968 7.03521 20.1235C6.92848 20.1235 6.82175 20.1235 6.71502 20.1235C6.55492 20.1235 6.42151 20.0701 6.26142 20.0435C4.66046 19.5365 3.05951 18.9762 1.45856 18.4425C1.05832 18.3091 0.764811 18.0423 0.524668 17.6954C0.417938 17.5086 0.391256 17.3218 0.337891 17.1084V1.89931C0.417938 1.3123 0.764811 0.938741 1.29846 0.671916C1.48524 0.591868 1.61865 0.618551 1.77875 0.565186H1.80543H11.1176C11.171 0.591868 11.2244 0.591868 11.3044 0.591868H11.3311C12.0782 0.645233 12.6119 1.04547 13.0121 1.63249C13.3056 2.03273 13.4123 2.48633 13.4123 2.96662C13.4123 3.79378 13.4123 4.62093 13.4123 5.44809C13.4123 5.79497 13.2522 6.06179 12.9321 6.19521C12.6385 6.32862 12.3184 6.32862 12.0248 6.11516C11.7847 5.95506 11.7047 5.71492 11.7047 5.42141C11.7047 4.70098 11.7047 3.95387 11.7047 3.23344C11.7047 3.12671 11.7047 2.9933 11.678 2.88657C11.5979 2.48633 11.3311 2.24619 10.9042 2.24619C9.91693 2.24619 8.90299 2.24619 7.91573 2.24619C7.75564 2.24619 7.59554 2.24619 7.46213 2.24619C7.59554 2.27287 7.75564 2.3796 7.88905 2.48633C8.28929 2.80652 8.52943 3.26012 8.52943 3.79378C8.52943 7.71611 8.52943 11.6384 8.52943 15.5875C8.52943 15.9077 8.52943 15.9077 8.87631 15.9077C9.54337 15.9077 10.2104 15.9077 10.8775 15.9077C11.3311 15.9077 11.5979 15.6675 11.678 15.2139C11.7047 15.1072 11.7047 15.0004 11.7047 14.9204C11.7047 13.9331 11.7047 12.9459 11.7047 11.9586C11.7047 11.6384 11.8114 11.3983 12.0782 11.2115C12.3717 11.0247 12.6652 10.9981 12.9854 11.1848C13.2789 11.3449 13.4123 11.6118 13.4123 11.932C13.4123 13.0526 13.4123 14.2 13.4123 15.3206Z" fill="black"/>
<path d="M19.5764 9.29042C18.5091 10.3577 17.4685 11.3983 16.4012 12.4656C16.1344 12.7325 15.8408 12.8125 15.494 12.6791C15.1738 12.5457 14.987 12.2522 14.987 11.8519C14.987 11.1315 14.987 10.3844 14.987 9.66398C14.987 9.50388 14.9336 9.4772 14.8002 9.4772C13.7863 9.4772 12.799 9.4772 11.7851 9.4772C11.1981 9.4772 10.8245 9.0236 10.9313 8.48995C11.0113 8.11639 11.3315 7.87625 11.7051 7.87625C12.212 7.87625 12.719 7.87625 13.2526 7.87625C13.7596 7.87625 14.2933 7.87625 14.8002 7.87625C14.9336 7.87625 14.9603 7.84956 14.9603 7.71615C14.9603 6.96904 14.9603 6.24861 14.9603 5.5015C14.9603 5.12794 15.1204 4.83444 15.4673 4.67434C15.7875 4.51425 16.1344 4.62098 16.4279 4.91448C17.4685 5.9551 18.5358 7.02241 19.5764 8.06303C19.95 8.43658 19.9766 8.91687 19.5764 9.29042Z" fill="black"/>
</svg>
