<svg width="20" height="21" viewBox="0 0 20 21" fill="none" xmlns="http://www.w3.org/2000/svg">
<path d="M19.863 4.49968C19.8494 3.97411 19.5508 3.64724 19.035 3.46778C16.2049 2.46792 13.3816 1.46806 10.5582 0.468208C10.28 0.365659 10.0017 0.365659 9.71667 0.468208C9.02441 0.718172 8.33215 0.968136 7.63311 1.21169C5.48168 1.9744 3.33025 2.74352 1.17203 3.50623C0.724094 3.66006 0.472981 3.95488 0.425473 4.40995C0.411899 4.56377 0.398326 4.71119 0.398326 4.86501C0.350818 7.29415 0.696947 9.67201 1.51816 11.9794C2.93661 15.9596 5.55633 18.9527 9.64202 20.7345C9.961 20.8755 10.28 20.8819 10.599 20.7473C13.5445 19.4911 15.8248 17.5427 17.4062 14.8828C19.0961 12.0435 19.7816 8.95416 19.8698 5.73027C19.8698 5.31366 19.8766 4.90987 19.863 4.49968ZM15.1937 8.31323C13.9585 9.531 12.73 10.7488 11.4948 11.9665C11.2166 12.2422 10.9383 12.5242 10.6533 12.7998C10.1714 13.2612 9.52664 13.2676 9.03799 12.8062C8.34573 12.1524 7.65347 11.4923 6.95442 10.8449C6.72367 10.6334 6.60151 10.3834 6.58793 10.063C6.60829 9.64637 6.82547 9.31309 7.25305 9.14644C7.66704 8.9798 8.07425 9.03748 8.40681 9.33231C8.83438 9.71687 9.25517 10.1143 9.66238 10.518C9.79133 10.6462 9.85241 10.6526 9.98815 10.518C11.2098 9.30027 12.4382 8.0889 13.6666 6.87754C14.2231 6.33275 15.1122 6.44171 15.4516 7.09546C15.662 7.50565 15.5737 7.93508 15.1937 8.31323Z" fill="white"/>
</svg>
