<svg width="40" height="38" viewBox="0 0 40 38" fill="none" xmlns="http://www.w3.org/2000/svg">
<path d="M31.1605 23.8C30.8605 24.1 30.6605 24.6 30.7605 25.1L32.4605 36.1C32.6605 37.3 31.3605 38.2 30.2605 37.7L20.2605 32.7C20.0605 32.6 19.8605 32.5 19.5605 32.5V0C20.0605 0 20.5605 0.3 20.8605 0.8L25.9605 10.7C26.1605 11.1 26.5605 11.4 27.0605 11.5L38.0605 13.3C39.2605 13.5 39.7605 15 38.8605 15.8L31.1605 23.8Z" fill="#DADADA"/>
<path d="M8.16053 23.8C8.46053 24.1 8.66053 24.6 8.56053 25.1L6.86053 36.1C6.66053 37.3 7.96053 38.2 9.06053 37.7L19.0605 32.7C19.2605 32.6 19.4605 32.5 19.7605 32.5V0C19.2605 0 18.7605 0.3 18.4605 0.8L13.3605 10.7C13.1605 11.1 12.7605 11.4 12.2605 11.5L1.26053 13.3C0.0605339 13.5 -0.439466 15 0.460534 15.8L8.16053 23.8Z" fill="#FFC700"/>
</svg>
